<svg height="512pt" viewBox="-33 0 512 512.00109" width="512pt" xmlns="http://www.w3.org/2000/svg"><path d="m444.421875 294.183594c-5.871094-104.082032-24.917969-180.066406-56.609375-225.839844-.023438-.035156-.054688-.066406-.078125-.101562-.160156-.21875-.324219-.429688-.503906-.628907-.027344-.035156-.054688-.070312-.085938-.101562-.207031-.222657-.429687-.433594-.664062-.628907-.0625-.054687-.128907-.101562-.195313-.152343-.183594-.144531-.371094-.28125-.566406-.40625-.070312-.046875-.140625-.09375-.214844-.140625-.476562-.285156-.984375-.527344-1.523437-.703125l-18.050781-5.925781c-.617188-11.027344-2.636719-20.851563-6.03125-29.253907-6.144532-15.210937-19.476563-26.1875-35.664063-29.367187-16.394531-3.21875-33.136719 1.996094-44.765625 13.953125l-56.265625 57.828125-56.269531-57.828125c-11.632813-11.957031-28.367188-17.175781-44.765625-13.953125-16.1875 3.179687-29.519531 14.15625-35.664063 29.367187-3.390625 8.394531-5.410156 18.203125-6.03125 29.214844l-18.171875 5.964844c-.535156.175781-1.042969.417969-1.519531.703125-.074219.042968-.144531.089844-.214844.140625-.195312.125-.386718.261719-.570312.40625-.0625.050781-.128906.097656-.195313.152343-.234375.199219-.457031.40625-.664062.628907-.027344.03125-.054688.066406-.082031.101562-.179688.199219-.347657.410157-.503907.628907-.027343.035156-.058593.066406-.082031.101562-28.71875 41.480469-47.113281 108.15625-54.675781 198.164062-.347657 4.136719 2.726562 7.769532 6.859375 8.117188 4.136718.34375 7.773437-2.726562 8.121094-6.859375 6.59375-78.53125 21.417968-138.367187 44.105468-178.203125l4.695313 12.738281 20.417969 55.417969v143.351562l-33.851563 160.785157h-35.480469c-1.546875-19.90625-5.414062-79.484375-2.679687-148.414063.167969-4.144531-3.0625-7.640625-7.210938-7.804687-4.144531-.179688-7.640625 3.0625-7.804687 7.210937-2.882813 72.683594 1.488281 135.125 2.898437 152.53125.523438 6.449219 6.003907 11.503906 12.484375 11.503906h39.824219c5.890625 0 11.042969-4.179687 12.257813-9.941406l19.558593-92.914062v90.332031c0 6.910156 5.621094 12.527344 12.527344 12.527344h12.699219v22.589843c0 6.90625 5.617187 12.523438 12.523437 12.523438h194.800781c6.910157 0 12.527344-5.617188 12.527344-12.523438v-22.589843h12.699219c6.90625 0 12.523437-5.617188 12.523437-12.527344v-90.335937l19.5625 92.917968c1.210938 5.761719 6.367188 9.945313 12.253907 9.945313h39.828125c6.476562 0 11.960937-5.054688 12.480468-11.507813 1.617188-19.914062 6.527344-91.117187 2.007813-171.195312zm-154.183594-268.816406c6.503907-6.6875 15.308594-10.335938 24.441407-10.335938 2.210937 0 4.441406.214844 6.660156.652344 11.351562 2.226562 20.324218 9.605468 24.625 20.246094 2.152344 5.332031 3.640625 11.464843 4.441406 18.320312l-32.070312-10.691406c-2.640626-.878906-5.558594-.226563-7.570313 1.703125-.316406.300781-28.214844 26.554687-69.644531 30.585937zm-189.800781 10.5625c4.300781-10.636719 13.273438-18.019532 24.625-20.246094 11.394531-2.238282 23.023438 1.378906 31.101562 9.683594l49.105469 50.472656c-41.265625-4.070313-69.324219-30.285156-69.632812-30.578125-1.242188-1.191407-2.835938-1.898438-4.492188-2.050781.019531-.117188.039063-.234376.0625-.347657l-1.015625.332031c-.710937.023438-1.429687.132813-2.125.367188l-32.070312 10.6875c.804687-6.855469 2.289062-12.988281 4.441406-18.320312zm217.597656 461.042968h-189.789062v-19.835937h189.792968v19.835937zm25.691406-343.191406c-.308593.832031-.464843 1.710938-.464843 2.597656v305.476563h-240.242188v-305.476563c0-.886718-.15625-1.765625-.460937-2.597656l-28.167969-76.449219 54.605469-17.925781c7.097656 5.875 23.785156 18.136719 47.160156 25.660156v69.347656c0 4.152344 3.367188 7.515626 7.515625 7.515626s7.515625-3.363282 7.515625-7.515626c0 0 0-65.375 0-65.441406.125 4.691406 63.90625 2.789063 63.90625.015625v65.429688c0 4.148437 3.367188 7.511719 7.515625 7.511719 4.152344 0 7.515625-3.363282 7.515625-7.511719v-69.3125c23.402344-7.511719 40.121094-19.777344 47.246094-25.671875l54.519531 17.898437zm83.894532 308.074219h-35.480469l-33.851563-160.785157v-143.351562l25.101563-68.125c25.066406 44.292969 40.910156 114.804688 46.027344 205.433594 4.304687 76.285156-.050781 144.40625-1.796875 166.828125zm0 0"/><path d="m303.6875 373.34375c-26.339844-15.597656-32.027344-36.78125-33.25-45.167969-.886719-6.097656-6.214844-10.695312-12.386719-10.695312h-69.820312c-6.171875 0-11.496094 4.597656-12.386719 10.695312-1.222656 8.382813-6.910156 29.570313-33.25 45.167969-3.769531 2.234375-6.113281 6.355469-6.113281 10.753906v36.175782c0 6.910156 5.621093 12.527343 12.527343 12.527343h28.542969c4.152344 0 7.515625-3.367187 7.515625-7.515625 0-4.148437-3.363281-7.515625-7.515625-7.515625h-26.039062v-32.25c28.878906-17.644531 36.71875-41.519531 38.84375-53.007812h65.570312c2.125 11.488281 9.964844 35.363281 38.84375 53.007812v32.25h-71.421875c-4.148437 0-7.515625 3.367188-7.515625 7.515625 0 4.148438 3.367188 7.515625 7.515625 7.515625h73.929688c6.90625 0 12.523437-5.617187 12.523437-12.527343v-36.175782c0-4.398437-2.34375-8.519531-6.113281-10.753906zm0 0"/></svg>