<svg height="512pt" viewBox="-1 0 512 512.0002" width="512pt" xmlns="http://www.w3.org/2000/svg"><path d="m460.535156 94.25 6.570313-19.695312c2.089843-6.1875-.835938-12.957032-6.777344-15.675782-15.613281-7.125-54.363281-22.59375-84.691406-16.527344-13.824219-5.117187-26.527344-12.859374-37.410157-22.800781-.394531-.394531-.828124-.746093-1.289062-1.058593-27.433594-18.289063-79.34375-18.492188-81.535156-18.492188-2.195313 0-54.101563.203125-81.535156 18.5-.464844.3125-.894532.667969-1.289063 1.058594-10.886719 9.941406-23.589844 17.683594-37.410156 22.800781-30.3125-6.074219-69.078125 9.386719-84.695313 16.527344-5.9375 2.71875-8.863281 9.480469-6.773437 15.667969l6.570312 19.695312-48.367187 201.515625c-1.726563 7.144531-2.285156 14.523437-1.648438 21.84375l15.566406 178.800781c.726563 8.839844 8.136719 15.632813 17.007813 15.589844h51.128906c4.78125-.003906 9.34375-2.011719 12.570313-5.539062 3.230468-3.523438 4.835937-8.242188 4.421875-13.003907l-15.140625-174.078125c-.636719-7.273437.296875-14.597656 2.730468-21.480468l19.097657-54.101563c6.023437 50.402344 9.375 101.085937 10.046875 151.84375-4.582032 3.171875-7.328125 8.386719-7.347656 13.960937v17.066407c.015624 5.96875 3.160156 11.496093 8.285156 14.554687.160156 11.316406.214844 19.867188.238281 24.433594-.019531 4.867188 2.078125 9.503906 5.742187 12.707031 25.839844 22.269531 74.777344 26.085938 105.199219 26.085938 13.167969 0 22.808594-.71875 25.601563-.949219 2.832031.230469 12.476562.949219 25.597656.949219 30.390625 0 79.292969-3.816407 105.175781-26.085938 3.675781-3.214843 5.777344-7.859375 5.757813-12.742187 0-4.539063.0625-13.074219.179687-24.363282 5.160157-3.050781 8.335938-8.59375 8.355469-14.589843v-17.066407c-.011719-5.59375-2.757812-10.824218-7.355469-14.003906.667969-50.757812 4.019531-101.441406 10.042969-151.84375l19.097656 54.101563c2.4375 6.882812 3.367188 14.207031 2.730469 21.480469l-15.128906 174.113281c-.417969 4.761719 1.183593 9.484375 4.414062 13.011719 3.230469 3.527343 7.792969 5.535156 12.574219 5.539062h51.132812c8.871094.042969 16.28125-6.75 17.007813-15.589844l15.5625-178.789062c.644531-7.328125.097656-14.707032-1.621094-21.855469zm-10.847656-21.417969-3.496094 10.480469-67.6875-20.300781 2.054688-4.105469c19.679687-3.234375 47.550781 4.546875 69.128906 13.925781zm-86.664062-17.066406-4.324219 8.652344c-6.4375 13.492187-10.394531 28.03125-11.683594 42.921875-14.300781-11.050782-32.570313-22.007813-48.949219-22.007813-2.5625 0-4.988281 1.152344-6.609375 3.136719-1.621093 1.984375-2.265625 4.59375-1.75 7.105469 3.3125 15.574219 9.964844 30.25 19.496094 43.007812-23.285156 3.257813-45.765625 10.808594-66.292969 22.269531 2.738282-5.648437 5.578125-11.441406 8.53125-17.433593 20.839844-42.273438 44.273438-89.871094 46.414063-121.726563 10.214843 1.839844 20.03125 5.441406 29.011719 10.640625 10.667968 9.773438 22.886718 17.707031 36.15625 23.46875zm-107.621094-38.699219c8.527344.148438 17.039062.746094 25.503906 1.792969-.628906 18.039063-10.828125 44.765625-23.261719 72.132813-13.601562-23.980469-27.015625-49.894532-27.699219-72.140626 8.449219-1.042968 16.945313-1.636718 25.457032-1.785156zm-71.449219 15.230469c9.011719-5.214844 18.863281-8.824219 29.113281-10.664063 1.707032 28.707032 19.234375 59.519532 34.929688 86.894532.265625.414062.570312.804687.902344 1.167968-4.265626 8.945313-8.625 17.757813-12.800782 26.136719-1.125 2.28125-2.199218 4.472657-3.300781 6.707031-10.058594-2.347656-20.28125-3.953124-30.574219-4.800781 9.175782-12.578125 15.605469-26.945312 18.875-42.164062.511719-2.511719-.128906-5.121094-1.75-7.105469s-4.050781-3.136719-6.613281-3.136719c-16.375 0-34.644531 10.957031-48.945313 22.042969-1.277343-14.890625-5.21875-29.429688-11.640624-42.921875l-4.328126-8.652344c13.265626-5.777343 25.476563-13.71875 36.132813-23.503906zm-53.710937 26.582031 2.058593 4.105469-67.6875 20.328125-3.5-10.480469c21.589844-9.378906 49.460938-17.175781 69.128907-13.953125zm0 95.183594c-2.132813-.753906-4.480469-.628906-6.523438.34375-2.039062.976562-3.609375 2.726562-4.363281 4.859375l-46.933594 132.882813c-3.25 9.199218-4.476563 18.988281-3.601563 28.703124l15.136719 174.082032h-51.128906l-15.507813-178.800782c-.476562-5.488281-.066406-11.023437 1.222657-16.382812l45.710937-190.523438c12.617188 10.4375 22.699219 23.601563 29.484375 38.503907 1.144531 3.488281 4.390625 5.851562 8.0625 5.871093.917969-.003906 1.828125-.152343 2.695313-.4375 2.148437-.714843 3.925781-2.253906 4.9375-4.277343 1.015625-2.023438 1.183594-4.367188.464844-6.515625-7.421876-17.339844-18.808594-32.703125-33.234376-44.851563l62.984376-18.894531c4.894531 11.6875 7.308593 24.265625 7.089843 36.933594-.371093 5.117187 2.367188 9.957031 6.941407 12.277344 4.574218 2.324218 10.09375 1.675781 14.007812-1.644532 9.769531-8.777344 20.894531-15.914062 32.9375-21.144531-3.238281 10.054687-8.769531 19.21875-16.152344 26.777344-3.820312 3.449219-5.199218 8.851562-3.507812 13.710937 1.695312 4.859375 6.136718 8.230469 11.273437 8.558594 11.058594.621094 22.054688 2.046875 32.902344 4.269531-4.410156 9.207031-8.378906 17.789063-11.355469 25.121094-.09375.222656-.101562.453125-.179687.664063-.671875 1.472656-.894531 3.113281-.648438 4.710937 0 .375-.050781.75 0 1.136719 1.390625 10.382812 13.441407 101.46875 20.480469 194.003906h-3.636719c-6.070312.019531-11.667969 3.269531-14.695312 8.535156h-36.503907v-8.535156c0-4.710938-3.820312-8.535156-8.535156-8.535156-4.710937 0-8.53125 3.824218-8.53125 8.535156v8.535156h-26.847656c-.253906-9.226562-.554688-18.773437-.910156-28.445312l42.324218-42.324219c3.234376-3.347656 3.1875-8.667969-.105468-11.960937-3.289063-3.292969-8.613282-3.339844-11.960938-.105469l-31.230468 31.234375c-2.390626-50.910156-6.597657-102.015625-13.988282-128.855469l16.632813-47.113281c1.5625-4.441406-.765625-9.308594-5.207031-10.878906zm193.425781 255.539062v17.066407h-42.667969v-17.066407zm59.734375 0v17.066407h-42.667969v-17.066407zm-119.46875 25.539063v.058594h-34.132813v-34.132813h34.132813zm-85.332032-8.472656v-17.066407h34.132813v17.066407zm-51.199218 0v-17.066407h34.132812v17.066407zm8.53125 38.910156c0-4.207031-.066406-11.816406-.203125-21.84375h25.804687v8.53125c0 4.714844 3.820313 8.535156 8.53125 8.535156 4.714844 0 8.535156-3.820312 8.535156-8.535156v-8.53125h36.503907c3.027343 5.261719 8.625 8.515625 14.695312 8.53125h7.5625c.484375 12.042969.785157 23.722656.851563 34.988281-26.503906.640625-78.292969-1.007812-102.28125-21.675781zm120.234375 20.820313c-.261719 0-.5.085937-.765625.085937h-.113282c-.09375-11.042969-.375-22.476563-.851562-34.242187h9.496094c6.070312-.019532 11.671875-3.273438 14.695312-8.535157h45.039063v8.535157c0 4.710937 3.820312 8.53125 8.535156 8.53125 4.710937 0 8.53125-3.820313 8.53125-8.53125v-8.507813h34.296875c-.09375 10.015625-.101562 17.601563 0 21.699219-32.957031 28.398437-118.015625 21.078125-118.863281 20.964844zm237.355469-170.265626-15.546876 178.800782h-51.132812l15.140625-174.082032c.851563-9.695312-.386719-19.460937-3.636719-28.636718l-46.933594-132.878906c-1.015624-2.875-3.488281-4.992188-6.484374-5.550782-2.996094-.558594-6.066407.527344-8.046876 2.84375-1.980468 2.316406-2.578124 5.515625-1.5625 8.390625l16.632813 47.109375c-7.390625 26.828125-11.597656 77.9375-13.988281 128.855469l-31.230469-31.234375c-3.347656-3.234375-8.671875-3.1875-11.960937.105469-3.292969 3.292969-3.339844 8.613281-.105469 11.960937l42.324219 42.328125c-.359376 9.699219-.65625 19.214844-.914063 28.441407h-35.34375v-8.585938c0-4.710938-3.820313-8.535156-8.53125-8.535156-4.714844 0-8.535156 3.824218-8.535156 8.535156v8.535156h-45.039063c-3.023437-5.265625-8.625-8.515625-14.695312-8.535156h-13.421875c-6.5625-87.203125-17.585938-173.226562-20.179688-192.851562 28.601563-26.515626 67.925781-34.441407 89.308594-36.695313 5.050781-.523437 9.308594-4 10.839844-8.84375 1.527343-4.84375.035156-10.132813-3.800781-13.460937-7.609376-7.558594-13.269532-16.847657-16.496094-27.078126 12.042968 5.230469 23.164062 12.367188 32.933594 21.136719 3.910156 3.320313 9.429687 3.96875 14.003906 1.648438 4.574218-2.320313 7.308594-7.15625 6.945312-12.269531-.222656-12.671876 2.191406-25.253907 7.089844-36.941407l62.984375 18.890625c-14.429687 12.152344-25.8125 27.511719-33.238281 44.851563-1.488282 4.476562.933594 9.3125 5.410156 10.804687 4.476562 1.488282 9.316406-.933594 10.804688-5.410156 6.714843-14.945312 16.785156-28.136719 29.429687-38.554688l45.722656 190.488282c1.300781 5.371094 1.726563 10.914062 1.253907 16.417968zm0 0"/><path d="m336.347656 180.273438c-1.976562-1.097657-4.3125-1.367188-6.488281-.746094s-4.015625 2.082031-5.117187 4.058594l-42.664063 76.800781c-2.292969 4.117187-.808594 9.3125 3.308594 11.605469 4.121093 2.289062 9.316406.808593 11.605469-3.3125l42.667968-76.800782c1.097656-1.976562 1.367188-4.308594.746094-6.488281-.621094-2.175781-2.078125-4.015625-4.058594-5.117187zm0 0"/></svg>