<?xml version="1.0" encoding="iso-8859-1"?>
<!-- Generator: Adobe Illustrator 19.0.0, SVG Export Plug-In . SVG Version: 6.00 Build 0)  -->
<svg version="1.1" id="Layer_1" xmlns="http://www.w3.org/2000/svg" xmlns:xlink="http://www.w3.org/1999/xlink" x="0px" y="0px"
	 viewBox="0 0 512.007 512.007" style="enable-background:new 0 0 512.007 512.007;" xml:space="preserve">
<g>
	<g>
		<path d="M511.9,478.51l-64-448c-0.747-5.227-5.227-9.173-10.56-9.173H74.673c-5.333,0-9.813,3.947-10.56,9.173l-64,448
			c-0.853,5.867,3.2,11.2,9.067,12.053c0.533,0.107,0.96,0.107,1.493,0.107h202.88c5.013,0,9.387-3.52,10.453-8.427l32-149.12
			l32,149.12c1.067,4.907,5.44,8.427,10.453,8.427h202.88c5.867,0,10.667-4.8,10.667-10.667
			C512.007,479.47,512.007,478.937,511.9,478.51z M428.06,42.67l13.44,93.867c-52.8-35.947-75.84-74.347-84.693-93.867H428.06z
			 M83.953,42.67h71.253c-8.96,19.627-31.893,57.92-84.693,93.867L83.953,42.67z M307.1,469.336L307.1,469.336L276.38,326.51
			c-0.107-0.533-0.32-1.067-0.427-1.6c-4.16-10.987-16.533-16.533-27.52-12.267c-5.653,2.133-10.133,6.613-12.267,12.267
			c-0.213,0.533-0.32,1.067-0.427,1.6l-30.827,142.827H22.94l43.52-304.853c77.973-47.147,104.427-101.547,112-121.813h66.88
			v170.667c0,5.867,4.8,10.667,10.667,10.667c5.867,0,10.667-4.8,10.667-10.667V42.67h66.88
			c7.467,20.267,34.027,74.667,111.893,121.813l43.627,304.853H307.1z"/>
	</g>
</g>
<g>
</g>
<g>
</g>
<g>
</g>
<g>
</g>
<g>
</g>
<g>
</g>
<g>
</g>
<g>
</g>
<g>
</g>
<g>
</g>
<g>
</g>
<g>
</g>
<g>
</g>
<g>
</g>
<g>
</g>
</svg>
