<?xml version="1.0" encoding="iso-8859-1"?>
<!-- Generator: Adobe Illustrator 19.0.0, SVG Export Plug-In . SVG Version: 6.00 Build 0)  -->
<svg version="1.1" id="Layer_1" xmlns="http://www.w3.org/2000/svg" xmlns:xlink="http://www.w3.org/1999/xlink" x="0px" y="0px"
	 viewBox="0 0 501.334 501.334" style="enable-background:new 0 0 501.334 501.334;" xml:space="preserve">
<g>
	<g>
		<path d="M419.84,161.707c-0.427-0.64-38.293-65.92-9.707-147.52c1.92-5.547-0.96-11.627-6.507-13.547
			C402.347,0.213,401.173,0,400,0h-74.667c-0.213,0-0.427,0.107-0.64,0.107c-0.747,0.107-1.6,0.213-2.347,0.533
			c-0.64,0.107-1.173,0.32-1.707,0.533C320,1.6,319.36,2.027,318.72,2.56c-0.427,0.32-0.853,0.533-1.28,0.96
			c-0.107,0.107-0.107,0.213-0.213,0.32c-0.107,0.107-0.213,0.107-0.32,0.32c-19.84,25.493-41.173,38.507-63.36,38.507h-0.107
			c-38.4,0-68.693-38.187-69.013-38.613c-0.107-0.107-0.213-0.107-0.32-0.32C184,3.52,184,3.52,183.893,3.413
			c-0.427-0.32-0.853-0.64-1.28-0.853c-0.64-0.533-1.28-1.067-1.92-1.387c-0.533-0.213-1.067-0.427-1.707-0.533
			c-0.747-0.213-1.6-0.427-2.347-0.533C176.427,0.107,176.213,0,176,0h-74.667c-5.867,0-10.667,4.8-10.667,10.667
			c0,1.173,0.213,2.347,0.64,3.52c28.373,81.173-9.387,146.88-9.813,147.52c-0.96,1.6-1.493,3.52-1.493,5.44v323.52
			c0,5.867,4.8,10.667,10.667,10.667h320c5.867,0,10.667-4.8,10.667-10.667v-323.52C421.333,165.227,420.8,163.413,419.84,161.707z
			 M253.44,64c21.867,0,42.56-8.853,61.653-26.347c-0.96,22.4-5.653,53.973-23.147,73.28C281.6,122.453,268.053,128,250.773,128
			s-30.827-5.547-41.173-17.067c-17.92-19.84-22.4-52.48-23.253-74.88C201.493,49.067,225.173,64,253.44,64z M400,480H101.333
			V169.92c7.147-13.333,35.2-72.96,14.507-148.587h48.853c-0.64,22.933,1.493,73.6,28.907,103.893
			c14.4,16,33.6,24.107,57.067,24.107c23.467,0,42.667-8.107,57.067-24.107c27.413-30.4,29.44-81.067,28.907-103.893h48.853
			C364.8,96.96,392.853,156.693,400,169.92V480z"/>
	</g>
</g>
<g>
</g>
<g>
</g>
<g>
</g>
<g>
</g>
<g>
</g>
<g>
</g>
<g>
</g>
<g>
</g>
<g>
</g>
<g>
</g>
<g>
</g>
<g>
</g>
<g>
</g>
<g>
</g>
<g>
</g>
</svg>
