<?xml version="1.0" encoding="iso-8859-1"?>
<!-- Generator: Adobe Illustrator 19.0.0, SVG Export Plug-In . SVG Version: 6.00 Build 0)  -->
<svg version="1.1" id="Layer_1" xmlns="http://www.w3.org/2000/svg" xmlns:xlink="http://www.w3.org/1999/xlink" x="0px" y="0px"
	 viewBox="0 0 512 512" style="enable-background:new 0 0 512 512;" xml:space="preserve">
<g>
	<g>
		<g>
			<path d="M416.788,135.899c-4.142,0-7.5,3.358-7.5,7.5l0.006,77.656V456.23H124.863c-4.142,0-7.5,3.358-7.5,7.5
				c0,4.142,3.358,7.5,7.5,7.5h284.431v23.27c0,1.378-1.122,2.5-2.5,2.5H105.206c-1.378,0-2.5-1.122-2.5-2.5V259.995l-0.019-29.233
				v-87.363c0-4.142-3.358-7.5-7.5-7.5c-4.142,0-7.5,3.358-7.5,7.5v87.368L87.706,260v234.5c0,9.649,7.851,17.5,17.5,17.5h301.588
				c9.649,0,17.5-7.851,17.5-17.5l-0.006-351.101C424.288,139.257,420.93,135.899,416.788,135.899z"/>
			<path d="M340.186,167.667v-11.914H352.1c4.142,0,7.5-3.358,7.5-7.5c0-4.142-3.358-7.5-7.5-7.5h-11.914v-11.914
				c0-4.142-3.358-7.5-7.5-7.5c-4.142,0-7.5,3.358-7.5,7.5v11.914h-11.914c-4.142,0-7.5,3.358-7.5,7.5c0,4.142,3.358,7.5,7.5,7.5
				h11.914v11.914c0,4.142,3.358,7.5,7.5,7.5C336.828,175.167,340.186,171.809,340.186,167.667z"/>
			<path d="M383.868,148.252c0-28.222-22.96-51.182-51.182-51.182c-28.222,0-51.182,22.96-51.182,51.182s22.96,51.182,51.182,51.182
				C360.907,199.434,383.868,176.474,383.868,148.252z M296.504,148.252c0-19.951,16.231-36.182,36.182-36.182
				c19.951,0,36.182,16.231,36.182,36.182s-16.231,36.182-36.182,36.182C312.735,184.434,296.504,168.203,296.504,148.252z"/>
			<path d="M502.122,27.14L455.837,4.743c-6.412-3.102-13.566-4.742-20.689-4.742h-48.646c-0.075-0.001-0.15-0.001-0.226,0h-44.22
				c-5.914,0-11.382,2.951-14.628,7.895l-51.437,78.34c-0.464,0.707-1.246,1.128-2.09,1.128h-35.478
				c-0.845,0-1.626-0.421-2.089-1.127L184.895,7.895c-3.247-4.943-8.715-7.894-14.628-7.894h-46.175
				c-0.076-0.001-0.152-0.001-0.229,0H75.185c-7.336,0-14.682,1.734-21.243,5.015L9.674,27.15C3.707,30.134,0,36.131,0,42.802
				v141.916c0,7.554,4.817,14.228,11.985,16.608l55.651,18.478c3.933,1.308,8.177-0.824,9.481-4.754
				c1.306-3.931-0.823-8.176-4.754-9.481L16.711,187.09c-1.023-0.34-1.711-1.293-1.711-2.372V42.802c0-0.953,0.529-1.81,1.382-2.236
				l44.269-22.134c4.489-2.245,9.515-3.431,14.534-3.431h44.751l74.71,113.785c5.101,7.769,13.694,12.406,22.987,12.406H260
				c4.142,0,7.5-3.358,7.5-7.5c0-4.142-3.358-7.5-7.5-7.5h-42.366c-4.224,0-8.13-2.108-10.449-5.639L137.881,15.001h32.386
				c0.845,0,1.626,0.422,2.09,1.127l51.438,78.341c3.246,4.944,8.714,7.895,14.628,7.895H273.9c5.913,0,11.382-2.951,14.629-7.895
				l51.438-78.34c0.463-0.707,1.245-1.128,2.089-1.128h30.429l-39.976,60.884c-2.273,3.462-1.31,8.112,2.153,10.386
				c3.461,2.273,8.113,1.31,10.386-2.153l45.381-69.116h44.718c4.874,0,9.769,1.122,14.156,3.245l46.286,22.397
				c0.857,0.415,1.411,1.298,1.411,2.25v141.825c0,1.079-0.688,2.032-1.712,2.372l-57.651,19.143
				c-3.931,1.305-6.06,5.55-4.754,9.481c1.044,3.147,3.973,5.139,7.117,5.139c0.783,0,1.58-0.124,2.364-0.384l57.651-19.142
				c7.168-2.38,11.985-9.054,11.985-16.608V42.892C512,36.226,508.123,30.043,502.122,27.14z"/>
		</g>
	</g>
</g>
<g>
</g>
<g>
</g>
<g>
</g>
<g>
</g>
<g>
</g>
<g>
</g>
<g>
</g>
<g>
</g>
<g>
</g>
<g>
</g>
<g>
</g>
<g>
</g>
<g>
</g>
<g>
</g>
<g>
</g>
</svg>
