<svg id="Capa_1" enable-background="new 0 0 512 512" height="512" viewBox="0 0 512 512" width="512" xmlns="http://www.w3.org/2000/svg"><g id="XMLID_1178_"><g id="XMLID_610_"><path id="XMLID_642_" d="m511.909 446.655-20.187-148.784c-.742-5.472-5.772-9.304-11.254-8.564-5.473.742-9.307 5.781-8.565 11.254l12.679 93.439h-39.967l-37.782-239.782v-93.02c19.763 4.438 35.422 20.836 38.236 41.582l14.736 108.613c.681 5.017 4.971 8.656 9.896 8.656.448 0 .901-.03 1.358-.092 5.473-.742 9.307-5.781 8.564-11.254l-14.736-108.613c-4.647-34.256-34.222-60.09-68.793-60.09h-38.094v-30c0-5.523-4.478-10-10-10h-48.667c-18.38 0-33.333 14.953-33.333 33.333v6.667h-20v-6.667c0-18.38-14.953-33.333-33.333-33.333h-48.667c-5.523 0-10 4.477-10 10v30h-38.094c-34.571 0-64.146 25.834-68.794 60.091l-47.021 346.564c-.388 2.86.479 5.749 2.378 7.923 1.898 2.175 4.644 3.422 7.531 3.422h59c4.922 0 9.112-3.581 9.878-8.443l39.452-250.383 15.837 51.334v103.987l-44.545 144.561c-.935 3.033-.374 6.33 1.512 8.884 1.885 2.554 4.871 4.06 8.045 4.06h130.488c4.295 0 8.11-2.742 9.479-6.814l16.854-50.137 16.854 50.137c1.368 4.071 5.184 6.814 9.479 6.814h130.488c3.174 0 6.16-1.507 8.045-4.06 1.886-2.554 2.446-5.851 1.512-8.884l-44.545-144.561v-103.987l15.837-51.334 39.452 250.383c.766 4.861 4.956 8.443 9.878 8.443h59c2.887 0 5.633-1.247 7.531-3.422 1.9-2.174 2.766-5.062 2.378-7.923zm-265.909-96.655v-32h20v32zm-10-52c-3.268 0-6.161 1.575-7.986 4h-56.615l74.601-74.601v70.601zm-81.833 48v-24h71.833v24zm0-55.053v-35.767l195.181-195.18h35.766zm166.895-230.947-54.935 54.936v-54.936zm-35.062-26.667c0-7.352 5.981-13.333 13.333-13.333h38.667v20h-52zm-112-13.333h38.667c7.352 0 13.333 5.981 13.333 13.333v6.667h-52zm-107.069 82.78c2.814-20.746 18.473-37.145 38.236-41.582v93.02l-37.782 239.782h-39.967zm-45.483 335.22 3.256-24h39.529l-3.782 24zm103.719-284.508v-93.492h120.96v74.936l-96.816 96.816zm97.312 338.508h-109.755l38.826-126h76.464c1.825 2.425 4.718 4 7.986 4h10v52.031zm67.043 0-23.522-69.969v-52.031h10c3.268 0 6.161-1.575 7.986-4h76.464l38.826 126zm68.311-146h-71.833v-24h71.833zm.444-99.948c-.295.955-.444 1.949-.444 2.948v53h-73.847c-1.825-2.425-4.718-4-7.986-4h-10v-90.601l120.833-120.834v66.927zm93.271 191.948-3.782-24h39.529l3.256 24z"/><path id="XMLID_674_" d="m468.69 247.56c-1.859 1.86-2.92 4.44-2.92 7.07s1.061 5.21 2.92 7.07c1.86 1.859 4.44 2.93 7.08 2.93 2.63 0 5.21-1.07 7.07-2.93s2.92-4.431 2.92-7.07c0-2.63-1.06-5.21-2.92-7.07-1.87-1.859-4.44-2.93-7.07-2.93-2.64 0-5.22 1.07-7.08 2.93z"/></g></g></svg>