<?xml version="1.0"?>
<svg xmlns="http://www.w3.org/2000/svg" id="Layer_1" data-name="Layer 1" viewBox="0 0 512 512" width="512" height="512"><path d="M416.488,55.884l3.821-17.3a6,6,0,0,0-3.883-6.959l-86.883-30.3a6,6,0,0,0-4.872.413A142.5,142.5,0,0,1,256,19.42,142.5,142.5,0,0,1,187.329,1.737a6,6,0,0,0-4.872-.413L176.2,3.5h0L95.574,31.625a6,6,0,0,0-3.883,6.959l3.821,17.3A141.709,141.709,0,0,1,98.85,86.39a141.159,141.159,0,0,1-35.4,93.518,6,6,0,0,0-1.5,3.972V464.44a6,6,0,0,0,4.118,5.7l122.8,40.57a6,6,0,0,0,5.05-.6l62.031-38.568,60.01,38.522a6,6,0,0,0,5.1.657L445.9,470.146a6,6,0,0,0,4.146-5.706V183.88a6,6,0,0,0-1.5-3.972A141.7,141.7,0,0,1,416.488,55.884ZM256,31.42a154.581,154.581,0,0,0,68.757-16.193L256,175.76,187.243,15.227A154.581,154.581,0,0,0,256,31.42ZM438.05,460.081l-118,38.344L262,461.162v-72.4h8.96a6,6,0,1,0,0-12H262v-47.6h8.96a6,6,0,0,0,0-12H262V279.5h8.96a6,6,0,1,0,0-12H262V240a6,6,0,0,0-12,0v27.5h-4.96v-1.28a6,6,0,0,0-12,0v14.56a6,6,0,0,0,12,0V279.5H250v37.66h-4.96v-1.28a6,6,0,0,0-12,0v14.57a6,6,0,0,0,12,0v-1.29H250v47.6h-4.96v-1.29a6,6,0,0,0-12,0v14.57a6,6,0,0,0,12,0v-1.28H250v72.346l-60.034,37.326L73.95,460.1V186.125a153.147,153.147,0,0,0,36.9-99.735A153.7,153.7,0,0,0,107.229,53.3l-2.671-12.1,70.259-24.5L250,192.231v20.436a6,6,0,1,0,12,0V192.231L337.183,16.7l70.259,24.5-2.671,12.093A153.74,153.74,0,0,0,438.05,186.124Z"/><path d="M399.19,271.22H322.81a6,6,0,0,0-6,6v63.07a6,6,0,0,0,2.856,5.111l38.19,23.49a6,6,0,0,0,6.288,0l38.19-23.49a6,6,0,0,0,2.856-5.111V277.22A6,6,0,0,0,399.19,271.22Zm-6,65.717L361,356.736l-32.19-19.8V304.5h64.38Zm0-44.437H328.81v-9.28h64.38Z"/><path d="M189.19,271.22H112.81a6,6,0,0,0-6,6v32.447a6,6,0,0,0,12,0V304.5h64.38v32.437L151,356.736l-32.19-19.8V330a6,6,0,0,0-12,0v10.29a6,6,0,0,0,2.856,5.111l38.19,23.49a6,6,0,0,0,6.288,0l38.19-23.49a6,6,0,0,0,2.856-5.111V277.22A6,6,0,0,0,189.19,271.22Zm-6,21.28H118.81v-9.28h64.38Z"/><path d="M383.884,144.824a6,6,0,1,0,11.412-3.708c-1.51-4.649-2.819-9.355-3.891-13.988a6,6,0,1,0-11.691,2.7C380.863,134.8,382.266,139.846,383.884,144.824Z"/><path d="M392.623,151.776a6,6,0,0,0-3.146,7.881,174.7,174.7,0,0,0,22.573,38.29V222a6,6,0,0,0,12,0V195.87a6,6,0,0,0-1.308-3.739A162.692,162.692,0,0,1,400.5,154.923,6,6,0,0,0,392.623,151.776Z"/></svg>
